/* XPM */
static char *ut2004[]={
"16 16 140 2",
"Qt c None",
"#V c #3b311d",
"#t c #908164",
".e c #bead79",
"#h c #c9c9c8",
".M c #f1edcc",
".2 c #f9f6f1",
".d c #6d6bae",
".# c #8885ad",
".n c #bea368",
".A c #c2a765",
".3 c #c3a673",
"#J c #cfcec8",
"#e c #d2cbb0",
"aj c #83828d",
"#H c #8a8175",
"#7 c #8d743f",
"#8 c #bbb390",
".0 c #c4c3bf",
".O c #c8c5bf",
"#v c #c9c7bd",
".o c #d3b263",
"ae c #7b6d5b",
"af c #7e7e87",
"#W c #897954",
".f c #c9c6c1",
".y c #5857ae",
".a c #8685d3",
".z c #dcbd71",
".N c #e1ce9c",
"ah c #434357",
"ag c #50505e",
"ai c #565564",
".m c #6059a4",
".b c #7472d5",
".c c #7a77cb",
"#U c #7f6b56",
"#6 c #8c6c42",
"#I c #a28241",
".p c #c8c1b4",
".B c #cec8be",
"#X c #5e5e80",
"#f c #9e8252",
"#g c #cfba91",
"ad c #3b3a59",
"#9 c #4b4a68",
"#s c #4f4e5b",
".g c #978a97",
".4 c #b9a690",
"#r c #0c0c30",
"#c c #121141",
"a. c #121244",
"#F c #13133c",
"#q c #151550",
"#Y c #151651",
"a# c #171641",
"#C c #17175e",
"#b c #18185f",
".U c #1a1a6a",
".Y c #1c1c5a",
"#L c #1d1d6b",
"#. c #1f1f70",
".X c #1f1f7a",
"#n c #201d56",
".Z c #201f59",
"#B c #211d56",
"#y c #222283",
"#x c #232387",
".K c #232489",
".9 c #242164",
"aa c #261e27",
"#M c #26267c",
".J c #262689",
".T c #282573",
"#w c #292a9e",
"ac c #2b1f2a",
"#G c #2b272e",
"#d c #2c2c49",
"#k c #2f2faa",
"#K c #31316a",
"#j c #3131be",
".F c #3231a8",
".x c #3334cc",
".G c #34308f",
".6 c #3737cd",
"#Z c #3c345b",
".L c #3f3f87",
".5 c #4d43b0",
".k c #4e4bea",
".Q c #52426c",
".s c #5553f7",
".j c #5654f8",
".u c #5756e4",
"ab c #5c452e",
"#i c #5e5488",
".t c #5e5af1",
".h c #605ee7",
".i c #6967f2",
".l c #6a63c4",
".w c #735c70",
"#P c #776569",
"#4 c #795a34",
".r c #8978b4",
"#Q c #978787",
"#T c #9f8665",
"#5 c #a27839",
"#0 c #a7814d",
"#z c #a98c63",
"#l c #ab916a",
".P c #b49c81",
"#3 c #b58237",
"#m c #b9883f",
"#A c #be893b",
"#N c #c3a16e",
"#a c #c79953",
".7 c #c8af94",
"#1 c #ca9749",
"#S c #cf9d4f",
"#p c #cf9d51",
".v c #cfc0c9",
"#u c #d0af67",
"#O c #d3a052",
".1 c #d5be88",
"## c #d6b47f",
"#E c #daa658",
"#D c #dbb472",
".R c #dcc6a5",
"#o c #ddb87e",
"#R c #deab5b",
"#2 c #dfaa57",
".8 c #e0b571",
".E c #e0c59f",
".I c #e3ba79",
".W c #e5c48f",
".H c #ead5b1",
".S c #eccc9a",
".V c #edddc2",
".q c #eedabb",
".D c #f1d9b3",
".C c #f2ddbd",
"QtQtQtQtQtQtQtQtQtQtQtQtQtQtQtQt",
"QtQtQtQtQtQtQtQtQtQtQtQtQtQtQtQt",
"QtQtQtQtQtQtQt.#.a.b.c.dQt.eQtQt",
"QtQtQtQtQt.f.g.h.i.j.k.l.m.n.oQt",
"QtQtQtQt.p.q.r.s.t.u.v.w.x.y.z.A",
"QtQtQt.B.C.D.E.F.G.H.I.J.K.L.M.N",
"QtQt.O.P.Q.R.S.T.U.V.W.X.Y.Z.0.1",
".2.3.4.5.6.7.8.9#.###a#b#c#d#e#f",
"#g#h#i#j#k#l#m#n#b#o#p#q#r#s#tQt",
"#u#v#w#x#y#z#A#B#C#D#E#F#G#HQtQt",
"#I#J#K#L#M#N#O#P#Q#R#S#T#UQtQtQt",
"#V#W#X#Y#Z#0#1#2#3#4#5#6QtQtQtQt",
"Qt#7#8#9a.a#aaabacadaeQtQtQtQtQt",
"QtQtQtQtafagahaiajQtQtQtQtQtQtQt",
"QtQtQtQtQtQtQtQtQtQtQtQtQtQtQtQt",
"QtQtQtQtQtQtQtQtQtQtQtQtQtQtQtQt"};
